<?xml version="1.0" encoding="UTF-8"?>
<svg width="16px" height="28px" viewBox="0 0 16 28" version="1.1" xmlns="http://www.w3.org/2000/svg" xmlns:xlink="http://www.w3.org/1999/xlink">
    <title>Path</title>
    <g id="Symbols" stroke="none" stroke-width="1" fill="none" fill-rule="evenodd">
        <g id="Carousel/Left" transform="translate(-14.000000, -11.000000)" fill="#50555E" fill-rule="nonzero">
            <g id="Button-Copy" transform="translate(25.000000, 25.000000) scale(-1, 1) translate(-25.000000, -25.000000) ">
                <g id="chevron-down" transform="translate(28.000000, 25.000000) rotate(-90.000000) translate(-28.000000, -25.000000) translate(14.000000, 17.000000)">
                    <path d="M27.4,0.6 C26.6,-0.2 25.4,-0.2 24.6,0.6 L14,11.2 L3.4,0.6 C2.6,-0.2 1.4,-0.2 0.6,0.6 C-0.2,1.4 -0.2,2.6 0.6,3.4 L12.6,15.4 C13,15.8 13.6,16 14,16 C14.4,16 15,15.8 15.4,15.4 L27.4,3.4 C28.2,2.6 28.2,1.4 27.4,0.6 L27.4,0.6 Z" id="Path"></path>
                </g>
            </g>
        </g>
    </g>
</svg>