<?xml version="1.0" encoding="UTF-8"?>
<svg width="13px" height="13px" viewBox="0 0 13 13" version="1.1" xmlns="http://www.w3.org/2000/svg" xmlns:xlink="http://www.w3.org/1999/xlink">
    <title>chevron-down</title>
    <g id="Symbols" stroke="none" stroke-width="1" fill="none" fill-rule="evenodd">
        <g id="chevron-double-right" fill="#F5F5F6" fill-rule="nonzero">
            <g id="chevron-down" transform="translate(6.500000, 6.500000) rotate(-180.000000) translate(-6.500000, -6.500000) ">
                <path d="M14.0164286,3.15184211 L9.625,7.60105263 L5.23357143,3.15184211 C4.90214286,2.81605263 4.405,2.81605263 4.07357143,3.15184211 C3.74214286,3.48763158 3.74214286,3.99131579 4.07357143,4.32710526 L9.045,9.36394737 C9.21071429,9.53184211 9.45928571,9.61578947 9.625,9.61578947 C9.79071429,9.61578947 10.0392857,9.53184211 10.205,9.36394737 L15.1764286,4.32710526 C15.5078571,3.99131579 15.5078571,3.48763158 15.1764286,3.15184211 C14.845,2.81605263 14.3478571,2.81605263 14.0164286,3.15184211 Z" id="Path" transform="translate(9.625000, 6.257895) rotate(-270.000000) translate(-9.625000, -6.257895) "></path>
                <path d="M8.01642857,3.15184211 L3.625,7.60105263 L-0.766428571,3.15184211 C-1.09785714,2.81605263 -1.595,2.81605263 -1.92642857,3.15184211 C-2.25785714,3.48763158 -2.25785714,3.99131579 -1.92642857,4.32710526 L3.045,9.36394737 C3.21071429,9.53184211 3.45928571,9.61578947 3.625,9.61578947 C3.79071429,9.61578947 4.03928571,9.53184211 4.205,9.36394737 L9.17642857,4.32710526 C9.50785714,3.99131579 9.50785714,3.48763158 9.17642857,3.15184211 C8.845,2.81605263 8.34785714,2.81605263 8.01642857,3.15184211 Z" id="Path-Copy" transform="translate(3.625000, 6.257895) rotate(-270.000000) translate(-3.625000, -6.257895) "></path>
            </g>
        </g>
    </g>
</svg>