<?xml version="1.0" encoding="UTF-8"?>
<svg width="32px" height="32px" viewBox="0 0 32 32" version="1.1" xmlns="http://www.w3.org/2000/svg" xmlns:xlink="http://www.w3.org/1999/xlink">
    <title>Shape</title>
    <g id="Home-Page" stroke="none" stroke-width="1" fill="none" fill-rule="evenodd">
        <g id="Desktop-HD" transform="translate(-555.000000, -2556.000000)" fill="#F5F5F6" fill-rule="nonzero">
            <g id="Footer" transform="translate(1.000000, 2479.000000)">
                <g id="mail" transform="translate(554.000000, 77.000000)">
                    <path d="M26.666,-1.77635684e-15 L5.334,-1.77635684e-15 C2.4,-1.77635684e-15 0,2.4 0,5.333 L0,26.666 C0,29.6 2.4,32 5.334,32 L26.666,32 C29.602,32 32,29.6 32,26.666 L32,5.333 C32,2.399 29.602,-1.77635684e-15 26.666,-1.77635684e-15 Z M8,8 L24,8 C24.286,8 24.563,8.061 24.817,8.177 L16,18.463 L7.183,8.176 C7.437,8.06 7.714,7.999 8,7.999 L8,8 Z M6,22 L6,10 C6,9.958 6.002,9.916 6.004,9.875 L11.868,16.717 L6.068,22.517 C6.023,22.35 5.999,22.177 5.999,22 L6,22 Z M24,24 L8,24 C7.823,24 7.65,23.976 7.483,23.931 L13.174,18.24 L16,21.537 L18.826,18.24 L24.517,23.931 C24.35,23.976 24.177,24 24,24 Z M26,22 C26,22.177 25.976,22.35 25.931,22.517 L20.131,16.717 L25.995,9.875 C25.998,9.916 25.999,9.958 25.999,10 L25.999,22 L26,22 Z" id="Shape"></path>
                </g>
            </g>
        </g>
    </g>
</svg>