<?xml version="1.0" encoding="UTF-8"?>
<svg width="29px" height="29px" viewBox="0 0 29 29" version="1.1" xmlns="http://www.w3.org/2000/svg" xmlns:xlink="http://www.w3.org/1999/xlink">
    <title>facebook</title>
    <g id="Home-Page" stroke="none" stroke-width="1" fill="none" fill-rule="evenodd">
        <g id="Desktop-HD" transform="translate(-564.000000, -2632.000000)" fill="#F5F5F6" fill-rule="nonzero">
            <g id="Footer" transform="translate(1.000000, 2479.000000)">
                <g id="facebook" transform="translate(563.000000, 153.000000)">
                    <path d="M26.28125,0 L2.71875,0 C1.2234375,0 0,1.2234375 0,2.71875 L0,26.28125 C0,27.7765625 1.2234375,29 2.71875,29 L14.5,29 L14.5,16.3125 L10.875,16.3125 L10.875,12.6875 L14.5,12.6875 L14.5,10.875 C14.5,7.8789375 16.9414375,5.4375 19.9375,5.4375 L23.5625,5.4375 L23.5625,9.0625 L19.9375,9.0625 C18.940625,9.0625 18.125,9.878125 18.125,10.875 L18.125,12.6875 L23.5625,12.6875 L22.65625,16.3125 L18.125,16.3125 L18.125,29 L26.28125,29 C27.7765625,29 29,27.7765625 29,26.28125 L29,2.71875 C29,1.2234375 27.7765625,0 26.28125,0 Z" id="Path"></path>
                </g>
            </g>
        </g>
    </g>
</svg>