<?xml version="1.0" encoding="UTF-8"?>
<svg width="29px" height="29px" viewBox="0 0 29 29" version="1.1" xmlns="http://www.w3.org/2000/svg" xmlns:xlink="http://www.w3.org/1999/xlink">
    <title>flickr</title>
    <g id="Home-Page" stroke="none" stroke-width="1" fill="none" fill-rule="evenodd">
        <g id="Desktop-HD" transform="translate(-774.000000, -2632.000000)" fill="#F5F5F6" fill-rule="nonzero">
            <g id="Footer" transform="translate(1.000000, 2479.000000)">
                <g id="flickr" transform="translate(773.000000, 153.000000)">
                    <path d="M26.28125,0 L2.71875,0 C1.2234375,0 0,1.2234375 0,2.71875 L0,26.28125 C0,27.7765625 1.2234375,29 2.71875,29 L26.28125,29 C27.7765625,29 29,27.7765625 29,26.28125 L29,2.71875 C29,1.2234375 27.7765625,0 26.28125,0 Z M8.15625,19.03125 C5.65228125,19.03125 3.625,17.0030625 3.625,14.5 C3.625,11.9969375 5.65228125,9.96875 8.15625,9.96875 C10.6602188,9.96875 12.6875,11.9969375 12.6875,14.5 C12.6875,17.0030625 10.6593125,19.03125 8.15625,19.03125 Z M20.84375,19.03125 C18.3406875,19.03125 16.3125,17.0030625 16.3125,14.5 C16.3125,11.9969375 18.3406875,9.96875 20.84375,9.96875 C23.3468125,9.96875 25.375,11.9969375 25.375,14.5 C25.375,17.0030625 23.3468125,19.03125 20.84375,19.03125 Z" id="Shape"></path>
                </g>
            </g>
        </g>
    </g>
</svg>