<?xml version="1.0" encoding="UTF-8"?>
<svg width="32px" height="32px" viewBox="0 0 32 32" version="1.1" xmlns="http://www.w3.org/2000/svg" xmlns:xlink="http://www.w3.org/1999/xlink">
    <title>instagram</title>
    <g id="Home-Page" stroke="none" stroke-width="1" fill="none" fill-rule="evenodd">
        <g id="Desktop-HD" transform="translate(-631.000000, -2631.000000)" fill="#F5F5F6" fill-rule="nonzero">
            <g id="Footer" transform="translate(1.000000, 2479.000000)">
                <g id="instagram" transform="translate(630.000000, 152.000000)">
                    <path d="M16.0090051,2.88245038 C20.2864111,2.88245038 20.7926959,2.90145335 22.474642,2.97646507 C24.0385217,3.04547586 24.8819961,3.3075168 25.445313,3.52655102 C26.1897317,3.81459603 26.727034,4.16465073 27.2833469,4.72073762 C27.8466637,5.2838256 28.1898568,5.81490858 28.4840223,6.55902485 C28.7031455,7.12211283 28.965293,7.97124551 29.0343318,9.52848883 C29.109374,11.2167526 29.1283847,11.7228317 29.1283847,15.9924988 C29.1283847,20.262166 29.109374,20.774246 29.0343318,22.4565088 C28.965293,24.0197531 28.7031455,24.8628848 28.4840223,25.4259728 C28.1958602,26.1700891 27.8466637,26.707173 27.2893503,27.2632599 C26.7260334,27.8263479 26.1947345,28.1694015 25.4513164,28.4634474 C24.8879995,28.6824816 24.0375211,28.9445226 22.4806454,29.0135334 C20.7916953,29.0885451 20.2854105,29.1075481 16.0140079,29.1075481 C11.7426052,29.1075481 11.2303171,29.0885451 9.5473704,29.0135334 C7.98349071,28.9445226 7.14001626,28.6824816 6.57669939,28.4634474 C5.83228066,28.1754024 5.29497843,27.8263479 4.73766494,27.2692608 C4.17434807,26.7061728 3.83115502,26.1750899 3.53698956,25.4319737 C3.3178663,24.8688858 3.05571884,24.0187529 2.98668001,22.4625098 C2.9116378,20.774246 2.8926271,20.2681669 2.8926271,15.9984998 C2.8926271,11.7288326 2.9116378,11.2167526 2.98668001,9.53448976 C3.05571884,7.97124551 3.3178663,7.12811377 3.53698956,6.56502579 C3.82515165,5.82090952 4.17534863,5.2838256 4.73166156,4.72673855 C5.29497843,4.16365057 5.82627728,3.82059697 6.57069602,3.52655102 C7.13401288,3.3075168 7.98349071,3.04547586 9.54136702,2.97646507 C11.2233131,2.90145335 11.7305985,2.88245038 16.0080045,2.88245038 L16.0090051,2.88245038 Z M16.0090051,0.00100015627 C11.6625602,0.00100015627 11.1192546,0.0200031255 9.41129385,0.0950148461 C7.71033706,0.170026567 6.54067913,0.445069542 5.52810956,0.839131114 C4.47151523,1.2511955 3.57701207,1.79528051 2.68951285,2.68942022 C1.79500969,3.57755899 1.25070352,4.47069855 0.83847164,5.52086263 C0.444249891,6.54002188 0.169095116,7.70220347 0.0940529048,9.40246914 C0.0190106935,11.1157368 0,11.6588217 0,16.0035005 C0,20.3481794 0.0190106935,20.8912643 0.0940529048,22.598531 C0.169095116,24.2987967 0.444249891,25.4679794 0.83847164,26.4801375 C1.25170408,27.5363025 1.79500969,28.4304423 2.68951285,29.3175809 C3.57701207,30.2047195 4.47151523,30.7558056 5.52210618,31.161869 C6.54167969,31.5559306 7.70433369,31.8309736 9.40529048,31.9059853 C11.1122506,31.980997 11.6565568,32 16.0030017,32 C20.3494466,32 20.8937527,31.980997 22.6007129,31.9059853 C24.3016697,31.8309736 25.4713276,31.5559306 26.4838972,31.161869 C27.5344881,30.7558056 28.4289913,30.2057196 29.3164905,29.3175809 C30.2039897,28.4294421 30.7552999,27.5363025 31.1615284,26.4861385 C31.5557501,25.4669792 31.8309049,24.3047976 31.9059471,22.604532 C31.9809893,20.8982654 32,20.3541803 32,16.0095015 C32,11.6648226 31.9809893,11.1217378 31.9059471,9.41447101 C31.8309049,7.71420534 31.5557501,6.54502266 31.1615284,5.53286451 C30.7673066,4.46969839 30.2230004,3.57655884 29.3294978,2.68842007 C28.4419986,1.80128145 27.5474955,1.25019534 26.4969045,0.844131896 C25.477331,0.450070323 24.314677,0.175027348 22.6137202,0.100015627 C20.9007567,0.0190029692 20.3564505,0 16.0100056,0 L16.0100056,0 L16.0090051,0.00100015627 Z" id="Shape"></path>
                    <path d="M16,7.78378378 C11.4645367,7.78378378 7.78378378,11.463537 7.78378378,16 C7.78378378,20.536463 11.463537,24.2162162 16,24.2162162 C20.536463,24.2162162 24.2162162,20.536463 24.2162162,16 C24.2162162,11.4645367 20.536463,7.78378378 16,7.78378378 Z M16,21.3291944 C13.0569971,21.3291944 10.6708056,18.9430029 10.6708056,16 C10.6708056,13.0569971 13.0569971,10.6708056 16,10.6708056 C18.9430029,10.6708056 21.3291944,13.0569971 21.3291944,16 C21.3291944,18.9430029 18.9430029,21.3291944 16,21.3291944 Z" id="Shape"></path>
                    <path d="M25.9459459,7.78378378 C25.9459459,8.73923637 25.1716688,9.51351351 24.2162162,9.51351351 C23.2607636,9.51351351 22.4864865,8.73923637 22.4864865,7.78378378 C22.4864865,6.8283312 23.2607636,6.05405405 24.2162162,6.05405405 C25.1716688,6.05405405 25.9459459,6.8283312 25.9459459,7.78378378 L25.9459459,7.78378378 Z" id="Path"></path>
                </g>
            </g>
        </g>
    </g>
</svg>