<?xml version="1.0" encoding="UTF-8"?>
<svg width="32px" height="31px" viewBox="0 0 32 31" version="1.1" xmlns="http://www.w3.org/2000/svg" xmlns:xlink="http://www.w3.org/1999/xlink">
    <title>pinterest</title>
    <g id="Home-Page" stroke="none" stroke-width="1" fill="none" fill-rule="evenodd">
        <g id="Desktop-HD" transform="translate(-844.000000, -2629.000000)" fill="#F5F5F6" fill-rule="nonzero">
            <g id="Footer" transform="translate(1.000000, 2479.000000)">
                <g id="pinterest" transform="translate(843.000000, 150.000000)">
                    <path d="M16.0005771,0 C7.16407574,0 0,6.93707857 0,15.4960877 C0,22.0631738 4.21972949,27.6655969 10.1719026,29.922439 C10.0345537,28.6995637 9.90528404,26.8138319 10.2296123,25.4791764 C10.5181605,24.2708326 12.1051758,17.7808748 12.1051758,17.7808748 C12.1051758,17.7808748 11.6296483,16.8519814 11.6296483,15.4826741 C11.6296483,13.3309054 12.9211903,11.7167995 14.5220559,11.7167995 C15.8851578,11.7167995 16.5488188,12.7082898 16.5488188,13.8965132 C16.5488188,15.2244618 15.6762489,17.215267 15.2214968,19.0529333 C14.839459,20.5966177 16.0155816,21.8541449 17.5875924,21.8541449 C20.4292155,21.8541449 22.615257,18.94786 22.615257,14.7561028 C22.615257,11.0461183 19.8601984,8.45393574 15.9359423,8.45393574 C11.3838052,8.45393574 8.71531109,11.7581582 8.71531109,15.1819854 C8.71531109,16.5166408 9.24162308,17.9418382 9.90528404,18.7175928 C10.0357078,18.8707316 10.0564833,19.00375 10.0137782,19.1647135 C9.89143372,19.6543107 9.62366096,20.7083979 9.5671055,20.9252515 C9.49439134,21.2114088 9.33626691,21.2672989 9.03271416,21.1353983 C7.03480613,20.2344499 5.78596934,17.4052933 5.78596934,15.1339199 C5.78596934,10.2435366 9.45053201,5.75891537 16.3537601,5.75891537 C21.9008115,5.75891537 26.2151849,9.58738687 26.2151849,14.7080374 C26.2151849,20.0455414 22.7387556,24.3490787 17.9119206,24.3490787 C16.2891253,24.3490787 14.7667448,23.5319655 14.247358,22.5673025 C14.247358,22.5673025 13.4463481,25.5227707 13.2512894,26.2493419 C12.8900271,27.597411 11.9170424,29.2808207 11.2603066,30.3080806 C12.7607574,30.7552014 14.3477728,31 15.9994229,31 C24.8359243,31 32,24.0629214 32,15.5039123 C32,6.93931417 24.8370784,0.0011178019 15.9994229,0.0011178019 L16.0005771,0 Z" id="Path"></path>
                </g>
            </g>
        </g>
    </g>
</svg>