<?xml version="1.0" encoding="UTF-8"?>
<svg width="33px" height="26px" viewBox="0 0 33 26" version="1.1" xmlns="http://www.w3.org/2000/svg" xmlns:xlink="http://www.w3.org/1999/xlink">
    <title>youtube</title>
    <g id="Home-Page" stroke="none" stroke-width="1" fill="none" fill-rule="evenodd">
        <g id="Desktop-HD" transform="translate(-699.000000, -2633.000000)" fill="#F5F5F6" fill-rule="nonzero">
            <g id="Footer" transform="translate(1.000000, 2479.000000)">
                <g id="youtube" transform="translate(698.000000, 154.000000)">
                    <path d="M32.6648438,5.60988181 C32.6648438,5.60988181 32.3420625,3.06140585 31.35,1.94197103 C30.0929063,0.469030481 28.6883438,0.462098996 28.0438125,0.375455434 C23.4289688,0 16.5,0 16.5,0 L16.487625,0 C16.487625,0 9.55865625,0 4.9438125,0.375455434 C4.29928125,0.462098996 2.89471875,0.469030481 1.637625,1.94197103 C0.64453125,3.06140585 0.32896875,5.60988181 0.32896875,5.60988181 C0.32896875,5.60988181 0,8.59966231 0,11.5952191 L0,14.3966942 C0,17.3853195 0.32896875,20.3820315 0.32896875,20.3820315 C0.32896875,20.3820315 0.65175,22.9305074 1.637625,24.0499422 C2.89471875,25.5228828 4.54471875,25.4720519 5.27896875,25.6314761 C7.9220625,25.9133564 16.5,26 16.5,26 C16.5,26 23.4351563,25.986137 28.05,25.6176131 C28.6945313,25.5309695 30.100125,25.524038 31.3561875,24.0510975 C32.34825,22.9316627 32.6710312,20.3831867 32.6710312,20.3831867 C32.6710312,20.3831867 33,17.3945615 33,14.3978495 L33,11.5963743 C32.9938125,8.6065938 32.6648438,5.61103706 32.6648438,5.61103706 L32.6648438,5.60988181 Z M13.0845,17.7977428 L13.0845,7.4074469 L21.998625,12.6210788 L13.0845,17.7977428 Z" id="Shape"></path>
                </g>
            </g>
        </g>
    </g>
</svg>